<svg width="40" height="40" viewBox="0 0 40 40" fill="none" xmlns="http://www.w3.org/2000/svg">
<g clip-path="url(#clip0)">
<path d="M14.4331 7.43594C15.0803 7.43594 15.605 6.91125 15.605 6.26406V3.9043C15.605 3.25711 15.0803 2.73242 14.4331 2.73242C13.7859 2.73242 13.2612 3.25711 13.2612 3.9043V6.26406C13.2612 6.91125 13.7859 7.43594 14.4331 7.43594Z" fill="white"/>
<path d="M3.80165 11.7259L1.75797 10.5459C1.19743 10.2222 0.480709 10.4144 0.157193 10.9748C-0.1664 11.5354 0.0256309 12.2521 0.5861 12.5756L2.62977 13.7555C3.18899 14.0785 3.90626 13.8884 4.23055 13.3266C4.55415 12.7661 4.36212 12.0494 3.80165 11.7259Z" fill="white"/>
<path d="M2.62977 24.6778L0.5861 25.8577C0.0256309 26.1812 -0.1664 26.8979 0.157193 27.4584C0.482428 28.0217 1.20016 28.2095 1.75797 27.8873L3.80165 26.7074C4.36212 26.3838 4.55415 25.6672 4.23055 25.1066C3.90696 24.5462 3.1904 24.354 2.62977 24.6778Z" fill="white"/>
<path d="M26.2362 13.7555L28.2799 12.5756C28.8404 12.252 29.0324 11.5354 28.7088 10.9748C28.3852 10.4144 27.6687 10.2222 27.108 10.5459L25.0644 11.7259C24.5039 12.0494 24.3119 12.7661 24.6355 13.3266C24.9607 13.8899 25.6784 14.0777 26.2362 13.7555Z" fill="white"/>
<path d="M31.1646 20.8805C29.8231 17.5655 26.5691 15.3736 22.9892 15.3891C21.5223 12.1227 18.2395 9.8418 14.433 9.8418C9.26366 9.8418 5.05811 14.0474 5.05811 19.2168C5.05811 22.5333 6.78998 25.4519 9.396 27.1189C6.61733 31.5086 9.7767 37.2637 14.9749 37.2637C33.4134 37.2445 32.4044 37.3109 32.7255 37.2112C36.8214 36.7492 40.0001 33.2753 40.0001 29.0606C40.0001 24.2476 35.8874 20.5105 31.1646 20.8805ZM7.40186 19.2169C7.40186 15.3398 10.5561 12.1856 14.4331 12.1856C17.0476 12.1856 19.3319 13.6208 20.5434 15.744C16.8403 16.8291 14.2691 20.2098 14.2279 24.0885C13.0638 24.2163 11.9662 24.6512 11.0209 25.362C8.86428 24.1598 7.40186 21.8563 7.40186 19.2169ZM32.2823 34.8998C31.8648 34.9338 21.2304 34.9141 14.9749 34.92C11.1108 34.92 9.22772 30.1302 12.1028 27.5047C12.9658 26.7166 14.1149 26.2973 15.3671 26.4113C16.1225 26.4794 16.738 25.8259 16.6337 25.0816C16.0905 21.2041 19.093 17.7325 23.0157 17.7325C25.9176 17.7325 28.4752 19.6858 29.2354 22.4826C29.3979 23.0802 29.9973 23.4479 30.6035 23.3228C34.2561 22.5674 37.6563 25.3596 37.6563 29.0606C37.6563 32.0884 35.2958 34.6534 32.2823 34.8998Z" fill="white"/>
</g>
<defs>
<clipPath id="clip0">
<rect width="40" height="40" fill="white"/>
</clipPath>
</defs>
</svg>
