<svg width="21" height="22" viewBox="0 0 21 22" fill="none" xmlns="http://www.w3.org/2000/svg">
<path d="M5.92625 1.17722V1.17718C4.87724 1.2263 4.16761 1.39284 3.55004 1.63193L3.54837 1.63258L3.54836 1.63257C2.90317 1.87572 2.31875 2.25663 1.83583 2.74875L1.83318 2.75146L1.83315 2.75143C1.34068 3.23461 0.959462 3.81934 0.716056 4.4649L0.715435 4.46655L0.715427 4.46654C0.475674 5.08583 0.308012 5.79754 0.260296 6.85271C0.211916 7.92255 0.2 8.26187 0.2 10.9998C0.2 13.737 0.211003 14.0762 0.260287 15.1486L5.92625 1.17722ZM5.92625 1.17722L5.93545 1.17679M5.92625 1.17722L5.93545 1.17679M5.93545 1.17679C7.00603 1.12751 7.34521 1.1165 10.0833 1.1165C12.8213 1.1165 13.1606 1.12842 14.2305 1.1768C15.2856 1.22452 15.9973 1.39218 16.6166 1.63194L16.6181 1.63251M5.93545 1.17679L16.6181 1.63251M16.6181 1.63251C17.263 1.8762 17.848 2.25713 18.3318 2.74973L18.3318 2.74975M16.6181 1.63251L18.3318 2.74975M18.3318 2.74975L18.3345 2.7524M18.3318 2.74975L18.3345 2.7524M18.3345 2.7524C18.8269 3.23517 19.2069 3.8191 19.4496 4.46473L19.4504 4.46678M18.3345 2.7524L19.4504 4.46678M19.4504 4.46678C19.691 5.08582 19.8577 5.79745 19.9064 6.85102L19.4504 4.46678ZM19.4496 17.534L19.4504 17.532C19.691 16.9128 19.8587 16.2012 19.9064 15.1479C19.9064 15.1479 19.9064 15.1479 19.9064 15.1479L20.1062 15.1569C20.1547 14.0817 20.1667 13.7388 20.1667 10.9998L19.4496 17.534ZM19.4496 17.534C19.2069 18.1797 18.8262 18.7648 18.3343 19.2484L18.3318 19.2509M19.4496 17.534L18.3318 19.2509M18.3318 19.2509C17.8481 19.7434 17.2632 20.1234 16.6184 20.3662L16.6164 20.3669M18.3318 19.2509L16.6164 20.3669M16.6164 20.3669C15.9974 20.6075 15.2857 20.7743 14.2321 20.8229L16.6164 20.3669ZM3.54914 20.3661L3.55119 20.3669C4.17034 20.6075 4.88196 20.7752 5.93528 20.8229C5.93529 20.8229 5.93529 20.8229 5.9353 20.8229L5.92625 21.0227C7.0015 21.0713 7.34433 21.0832 10.0833 21.0832L3.54914 20.3661ZM3.54914 20.3661C2.90344 20.1233 2.31841 19.7427 1.83479 19.2508L1.83227 19.2483M3.54914 20.3661L1.83227 19.2483M1.83227 19.2483C1.34004 18.7651 0.959129 18.1804 0.716098 17.5349L0.715427 17.5331M1.83227 19.2483L0.715427 17.5331M0.715427 17.5331C0.475713 16.9139 0.308918 16.2022 0.260289 15.1487L0.715427 17.5331ZM4.06346 2.95304L4.06335 2.95308C3.56851 3.146 3.20867 3.37804 2.83597 3.75053C2.48094 4.09621 2.2076 4.51681 2.03589 4.98162C1.88984 5.35726 1.72156 5.912 1.67571 6.91612C1.62691 7.98411 1.61683 8.30676 1.61683 10.9998C1.61683 13.6929 1.62691 14.0156 1.67571 15.0835C1.72156 16.0877 1.88984 16.6424 2.0359 17.0181C2.20725 17.4817 2.48034 17.9027 2.83497 18.2482C3.18049 18.6028 3.60148 18.8759 4.06515 19.0473C4.44079 19.1933 4.99553 19.3616 5.99963 19.4075C7.06761 19.4563 7.38934 19.4663 10.0833 19.4663C12.7773 19.4663 13.0991 19.4563 14.167 19.4075C15.1726 19.3615 15.7275 19.1928 16.1032 19.0466L16.1033 19.0466C16.5981 18.8537 16.958 18.6216 17.3307 18.2492C17.6858 17.9035 17.9593 17.4821 18.1308 17.018C18.2768 16.6424 18.4451 16.0876 18.491 15.0835C18.5398 14.0156 18.5498 13.6929 18.5498 10.9998C18.5498 8.30676 18.5398 7.98411 18.491 6.91612C18.445 5.91053 18.2763 5.35563 18.1301 4.97997L18.1301 4.97986C17.9372 4.48499 17.7051 4.12514 17.3326 3.75242C16.9869 3.39745 16.5663 3.12413 16.1016 2.9524C15.7259 2.80635 15.1712 2.63807 14.167 2.59221C13.0991 2.54342 12.7764 2.53334 10.0833 2.53334C7.39026 2.53334 7.06761 2.54342 5.99963 2.59221C4.99403 2.63813 4.43913 2.80684 4.06346 2.95304ZM8.71873 14.293C9.48073 14.6101 10.3292 14.6529 11.1192 14.414C11.9093 14.1751 12.592 13.6693 13.0506 12.983C13.5092 12.2967 13.7153 11.4725 13.6337 10.6511C13.5522 9.82978 13.188 9.06228 12.6035 8.47962C12.2308 8.10716 11.7801 7.82196 11.284 7.64456C10.7878 7.46717 10.2585 7.40198 9.73416 7.4537C9.20979 7.50542 8.70342 7.67276 8.25149 7.94367C7.79956 8.21458 7.41332 8.58232 7.12057 9.02041C6.82782 9.45851 6.63585 9.95607 6.55847 10.4773C6.4811 10.9985 6.52024 11.5303 6.67309 12.0346C6.82594 12.5388 7.0887 13.0029 7.44243 13.3934C7.79615 13.7839 8.23204 14.0911 8.71873 14.293ZM6.55992 7.47642C7.02262 7.01372 7.57193 6.64669 8.17648 6.39628C8.78102 6.14587 9.42897 6.01698 10.0833 6.01698C10.7377 6.01698 11.3856 6.14587 11.9902 6.39628C12.5947 6.64669 13.144 7.01372 13.6067 7.47642C14.0694 7.93913 14.4365 8.48843 14.6869 9.09298C14.9373 9.69753 15.0662 10.3455 15.0662 10.9998C15.0662 11.6542 14.9373 12.3021 14.6869 12.9067C14.4365 13.5112 14.0694 14.0605 13.6067 14.5232C12.6723 15.4577 11.4049 15.9827 10.0833 15.9827C8.7618 15.9827 7.49439 15.4577 6.55992 14.5232C5.62545 13.5888 5.10048 12.3214 5.10048 10.9998C5.10048 9.6783 5.62545 8.41089 6.55992 7.47642ZM16.5134 6.11042C16.4581 6.236 16.3782 6.34921 16.2784 6.44335C16.0843 6.62645 15.8265 6.72669 15.5597 6.7228C15.2929 6.71891 15.0382 6.6112 14.8495 6.42252C14.6608 6.23385 14.5531 5.97907 14.5492 5.71227C14.5453 5.44548 14.6456 5.18767 14.8286 4.99358C14.9228 4.89378 15.036 4.81388 15.1616 4.75862C15.2872 4.70335 15.4225 4.67385 15.5597 4.67185C15.6969 4.66985 15.8331 4.6954 15.9602 4.74697C16.0874 4.79855 16.2029 4.87511 16.2999 4.97213C16.3969 5.06914 16.4735 5.18463 16.525 5.31177L16.7104 5.23658L16.525 5.31177C16.5766 5.4389 16.6022 5.57509 16.6002 5.71227C16.5982 5.84946 16.5686 5.98485 16.5134 6.11042Z" fill="white" stroke="#E20531" stroke-width="0.4"/>
</svg>
