<svg width="154" height="49" viewBox="0 0 154 49" fill="none" xmlns="http://www.w3.org/2000/svg">
<path d="M131.633 7.97531V20.0753H135.483V12.0086H149.6V20.0753H153.542V7.97531H131.633Z" fill="white"/>
<path d="M135.025 4.03345H149.967C152.075 3.66678 153.542 1.83346 154 0.00012207H130.992C131.45 1.83346 133.008 3.66678 135.025 4.03345Z" fill="white"/>
<path d="M119.808 20.0751C121.733 19.2501 122.833 17.7835 123.2 16.1335H105.783V0.00012207H101.842V20.0751H119.808Z" fill="white"/>
<path d="M72.8749 3.94181H86.6249C88.7333 3.30014 90.4749 1.74179 90.8416 0.00012207H68.9332V11.8251H86.8999V15.9501H72.8749C70.6749 16.5918 68.8416 18.0585 67.8333 19.9835H68.9332H90.7499V7.88346H72.7833L72.8749 3.94181Z" fill="white"/>
<path d="M38.8666 4.03345H53.8082C55.9166 3.57512 57.3832 1.83346 57.8416 0.00012207H34.8333C35.1999 1.74179 36.7583 3.57512 38.8666 4.03345Z" fill="white"/>
<path d="M38.8666 11.9169H53.8082C55.9166 11.5502 57.3832 9.71688 57.8416 7.88354H34.8333C35.1999 9.71688 36.7583 11.5502 38.8666 11.9169Z" fill="white"/>
<path d="M38.8666 20.0751H53.8082C55.9166 19.7085 57.3832 17.8751 57.8416 16.0418H34.8333C35.1999 17.8751 36.7583 19.6168 38.8666 20.0751Z" fill="white"/>
<path d="M0 0.0918884C0.458333 1.83356 1.925 3.66688 4.03333 4.12522H10.3583L10.6333 4.21689V20.0752H14.575V4.21689L14.9417 4.12522H21.2667C23.375 3.57522 24.8417 1.92522 25.3 0.0918884H0Z" fill="white"/>
<path d="M56.7417 28.6915C57.2001 28.7832 57.7501 28.7831 58.2084 28.8748C62.6084 29.5165 66.2751 31.7165 66.2751 35.4748C66.2751 39.0498 64.7167 42.5331 57.2001 42.5331C56.7417 42.5331 56.2834 42.6248 55.8251 42.6248C55.8251 42.7165 55.9167 42.7165 55.9167 42.8082C57.5667 45.0082 58.5751 46.3831 60.2251 48.5831C60.2251 48.6748 60.3167 48.6748 60.3167 48.7665H55.5501C55.3667 48.3998 55.0918 48.1248 54.8168 47.7582C52.6168 44.8248 50.4167 41.7998 48.2167 38.8665C48.2167 38.8665 48.2167 38.7748 48.1251 38.6832C48.1251 38.6832 54.5417 38.6832 57.0167 38.6832C59.0334 38.6832 61.9667 38.1332 61.9667 35.4748C61.9667 33.0915 58.9417 32.5415 57.1084 32.5415C52.9834 32.5415 47.6667 32.5415 43.5417 32.5415C43.2667 32.5415 43.1751 32.5415 43.0834 32.3582C42.3501 31.3498 41.5251 29.6082 40.7917 28.6915H56.7417Z" fill="white"/>
<path d="M151.342 32.4498C151.25 32.5415 151.158 32.6332 150.883 32.6332H129.892C129.892 32.6332 129.892 28.7832 129.892 28.6915C137.683 28.6915 145.475 28.6915 153.358 28.6915C153.45 28.6915 153.45 28.6915 153.633 28.6915" fill="white"/>
<path d="M153.175 44.8251C145.475 44.8251 137.867 44.8251 130.167 44.8251H129.892C129.892 44.9168 129.892 44.9168 129.892 45.0085C129.892 45.9251 129.892 47.6668 129.892 48.5835V48.6751H151.25C151.708 47.9418 153.175 45.3751 153.542 44.8251C153.45 44.8251 153.267 44.8251 153.175 44.8251Z" fill="white"/>
<path d="M129.892 40.6082V36.7582H143.183C142.542 38.0415 141.808 39.2332 140.983 40.4249C140.892 40.5165 140.8 40.6082 140.617 40.6082C137.133 40.6082 133.65 40.6082 130.167 40.6082C130.075 40.6999 129.983 40.6999 129.892 40.6082Z" fill="white"/>
<path d="M83.2334 33.1832L78.925 28.6915C78.925 28.7832 78.925 28.7831 78.925 28.8748V28.9665C78.925 35.4748 78.925 41.9831 78.925 48.4915C78.925 48.5831 78.925 48.6748 78.925 48.6748H83.2334V48.5831C83.2334 43.4498 83.2334 38.3165 83.2334 33.1832Z" fill="white"/>
<path d="M15.4001 28.6918L17.6918 32.5418H17.7834C18.5168 32.5418 17.6001 32.5418 18.3334 32.5418C18.3334 32.5418 18.4251 32.5418 18.5168 32.5418C20.9918 32.5418 23.1001 32.7251 24.7501 33.0001C29.8834 33.9168 32.3584 36.0251 32.3584 38.5001C32.3584 38.5918 32.3584 38.5918 32.3584 38.6835C32.3584 38.7752 32.3584 38.7751 32.3584 38.8668C32.3584 42.1668 28.0501 44.7335 18.9751 44.8251C18.7918 44.8251 18.7001 44.8251 18.5168 44.8251C18.4251 44.8251 18.4251 44.8251 18.3334 44.8251C17.6001 44.8251 15.8584 44.8251 15.2168 44.8251H14.8501V41.3418V40.8835V36.6668L10.9084 30.0668C10.9084 30.6168 10.9084 30.3418 10.9084 30.8918V38.4085V38.8668V46.3835C10.9084 47.1168 10.9084 47.7585 10.9084 48.4918C10.9084 48.5835 10.9084 48.5835 10.9084 48.6751H15.8584H22.0001H22.1834C22.8251 48.5835 23.4668 48.5835 24.1084 48.4918C24.2918 48.4918 24.5668 48.4002 24.7501 48.4002C25.6668 48.3085 26.6751 48.0335 27.5001 47.8502C27.5918 47.8502 27.7751 47.7585 27.8668 47.7585C28.1418 47.6668 28.3251 47.5751 28.6001 47.5751C28.7834 47.4835 28.8751 47.4835 29.0584 47.3918C29.3334 47.3002 29.6084 47.2085 29.8834 47.0252C29.9751 47.0252 29.9751 46.9335 30.0668 46.9335C32.1751 46.0168 33.9168 44.7335 35.2001 43.3585C35.2918 43.2668 35.3834 43.1751 35.3834 43.0835C36.4834 41.7085 37.0334 40.2418 36.9418 38.6835C36.9418 37.1252 36.4834 35.6585 35.3834 34.2835C35.2918 34.1918 35.2918 34.1001 35.2001 34.0085C34.0084 32.5418 32.2668 31.3502 30.0668 30.4335C29.9751 30.4335 29.9751 30.3418 29.8834 30.3418C29.6084 30.2501 29.3334 30.1585 29.0584 29.9752C28.8751 29.8835 28.7834 29.8835 28.6001 29.7918C28.3251 29.7001 28.1418 29.6085 27.8668 29.6085C27.7751 29.6085 27.5918 29.5168 27.5001 29.5168C26.4001 29.2418 25.3001 28.9668 24.1084 28.8751C21.4501 28.6001 18.6084 28.6918 15.9501 28.6918H15.4001Z" fill="white"/>
<path d="M108.167 41.6165L108.075 41.5248C105.417 37.8582 102.667 34.2831 100.008 30.6165C99.6418 30.0665 98.9085 29.1498 98.5418 28.6915H93.7751C93.8668 28.7832 93.8668 28.8748 93.9585 28.9665C96.0668 31.8082 98.1751 34.6498 100.283 37.4915C103.033 41.2498 105.783 44.9165 108.533 48.6748C108.533 48.6748 108.625 48.7665 108.625 48.8582C108.717 48.7665 108.717 48.7665 108.808 48.6748C109.633 47.4832 110.183 46.7498 111.1 45.5582L108.167 41.6165Z" fill="white"/>
<path d="M120.083 33.1834C121.183 31.7167 122.283 30.25 123.383 28.6917H118.525C117.7 29.7917 116.875 30.8917 116.142 31.9917C114.583 34.1 112.567 36.85 110.917 39.05L113.3 42.2584C113.3 42.1667 113.392 42.1667 113.392 42.075C115.592 39.1417 117.975 36.1167 120.083 33.1834Z" fill="white"/>
</svg>
