<svg width="19" height="18" viewBox="0 0 19 18" fill="none" xmlns="http://www.w3.org/2000/svg">
<path d="M18.804 15.7708L18.8016 15.7731V15.7674L17.8868 16.6343C16.7037 17.7771 14.9806 18.2473 13.3429 17.8743C11.6929 17.453 10.1243 16.7824 8.69669 15.8879C7.37033 15.0793 6.14116 14.1341 5.03147 13.069C4.01043 12.1022 3.09314 11.0405 2.29306 9.89994C1.41795 8.67264 0.725285 7.33569 0.23476 5.92707C-0.327563 4.27229 0.138419 2.45651 1.43847 1.23661L2.50973 0.214713C2.80757 -0.0706827 3.29153 -0.0716921 3.59064 0.212426L3.59304 0.214713L6.97537 3.4412C7.27455 3.72531 7.27561 4.18698 6.97777 4.47231L6.97537 4.4746L4.98929 6.36916C4.41942 6.90685 4.34777 7.76129 4.8208 8.37857C5.53913 9.31899 6.33406 10.2039 7.1981 11.0252C8.16145 11.9482 9.20872 12.7877 10.3277 13.5341C10.9742 13.9643 11.8507 13.8918 12.41 13.3619L14.3299 11.5018C14.6277 11.2164 15.1117 11.2154 15.4108 11.4995L15.4132 11.5018L18.8016 14.7398C19.0267 15.3 19.1019 15.4854 18.804 15.7708Z" fill="white"/>
</svg>
