<svg width="21" height="19" viewBox="0 0 21 19" fill="none" xmlns="http://www.w3.org/2000/svg">
<path d="M10.1535 0.639489C10.3025 0.364374 10.6973 0.364375 10.8464 0.639489L13.712 5.92883C13.7688 6.03358 13.8699 6.10703 13.987 6.12864L19.903 7.21953C20.2107 7.27627 20.3327 7.65176 20.1171 7.87853L15.9722 12.2384C15.8901 12.3248 15.8515 12.4436 15.8672 12.5617L16.6578 18.5253C16.6989 18.8354 16.3795 19.0675 16.0972 18.9325L10.6699 16.3378C10.5624 16.2864 10.4374 16.2864 10.3299 16.3378L4.9026 18.9325C4.6203 19.0675 4.30089 18.8354 4.34201 18.5253L5.13266 12.5617C5.14832 12.4436 5.1097 12.3248 5.02762 12.2384L0.882681 7.87853C0.66709 7.65176 0.789096 7.27627 1.09681 7.21953L7.0128 6.12864C7.12996 6.10703 7.23106 6.03358 7.28781 5.92883L10.1535 0.639489Z" fill="#E20531"/>
</svg>
