<svg width="21" height="19" viewBox="0 0 21 19" fill="none" xmlns="http://www.w3.org/2000/svg">
<path d="M10.0145 0.639489C10.1636 0.364374 10.5584 0.364375 10.7075 0.639489L13.5731 5.92883C13.6298 6.03358 13.7309 6.10703 13.8481 6.12864L19.7641 7.21953C20.0718 7.27627 20.1938 7.65176 19.9782 7.87853L15.8333 12.2384C15.7512 12.3248 15.7126 12.4436 15.7282 12.5617L16.5189 18.5253C16.56 18.8354 16.2406 19.0675 15.9583 18.9325L10.531 16.3378C10.4235 16.2864 10.2985 16.2864 10.191 16.3378L4.76368 18.9325C4.48139 19.0675 4.16197 18.8354 4.2031 18.5253L4.99374 12.5617C5.0094 12.4436 4.97079 12.3248 4.8887 12.2384L0.743765 7.87853C0.528174 7.65176 0.65018 7.27627 0.957889 7.21953L6.87389 6.12864C6.99105 6.10703 7.09214 6.03358 7.14889 5.92883L10.0145 0.639489Z" fill="#C4C4C4"/>
</svg>
