<svg width="19" height="20" viewBox="0 0 19 20" fill="none" xmlns="http://www.w3.org/2000/svg">
<path d="M16.8574 1.9475C16.3604 1.49053 14.3492 0.033679 9.86493 0.0141502C9.86493 0.0141502 4.57855 -0.302216 2.00383 2.05686C0.571696 3.48637 0.0669262 5.58376 0.0121451 8.18109C-0.0426361 10.7784 -0.109156 15.645 4.59029 16.9651H4.5942L4.59029 18.9805C4.59029 18.9805 4.55898 19.7968 5.09897 19.9609C5.74852 20.164 6.13198 19.5429 6.75414 18.8751C7.09457 18.5079 7.56412 17.9689 7.9202 17.5588C11.1366 17.8283 13.6057 17.2112 13.8874 17.1214C14.537 16.9105 18.2112 16.4418 18.806 11.5752C19.4242 6.55239 18.5086 3.38091 16.8574 1.9475ZM17.4013 11.2081C16.8965 15.27 13.9187 15.5278 13.3709 15.7036C13.1361 15.7778 10.9645 16.3168 8.23715 16.141C8.23715 16.141 6.20242 18.5899 5.56852 19.2266C5.36114 19.4336 5.13418 19.4141 5.1381 19.004C5.1381 18.7345 5.15375 15.6567 5.15375 15.6567C5.14984 15.6567 5.14984 15.6567 5.15375 15.6567C1.17037 14.5553 1.40515 10.4113 1.44819 8.24359C1.49124 6.07589 1.9021 4.29877 3.11511 3.10361C5.29461 1.1312 9.78276 1.42413 9.78276 1.42413C13.5744 1.43975 15.39 2.58023 15.8126 2.963C17.2095 4.15816 17.9217 7.01718 17.4013 11.2081ZM11.9623 8.0522C11.9779 8.3881 11.4731 8.41153 11.4575 8.07564C11.4145 7.21637 11.0114 6.79845 10.1819 6.75159C9.84537 6.73206 9.87667 6.22821 10.2093 6.24774C11.301 6.30633 11.9075 6.93125 11.9623 8.0522ZM12.7566 8.49355C12.7957 6.83751 11.7588 5.5408 9.79058 5.39629C9.45798 5.37285 9.4932 4.86901 9.8258 4.89244C12.0953 5.05649 13.3044 6.61488 13.2614 8.50527C13.2575 8.84117 12.7488 8.82554 12.7566 8.49355ZM14.5957 9.01693C14.5996 9.35282 14.0909 9.35673 14.0909 9.02083C14.0674 5.83764 11.9427 4.10348 9.36407 4.08395C9.03147 4.08005 9.03147 3.58011 9.36407 3.58011C12.2479 3.59964 14.5683 5.58767 14.5957 9.01693ZM14.1535 12.8485V12.8563C13.7309 13.5984 12.9405 14.4186 12.1266 14.1569L12.1188 14.1452C11.2932 13.9147 9.34842 12.9149 8.11976 11.9384C7.48586 11.4385 6.90675 10.8487 6.46067 10.2824C6.05764 9.77855 5.65069 9.18097 5.25549 8.46231C4.42203 6.95859 4.23812 6.2868 4.23812 6.2868C3.97595 5.4744 4.79376 4.68544 5.54113 4.26362H5.54896C5.90895 4.07614 6.25328 4.13863 6.48415 4.41594C6.48415 4.41594 6.96935 4.99399 7.17674 5.27911C7.37239 5.54471 7.63455 5.97043 7.77151 6.20868C8.0102 6.63441 7.8615 7.06795 7.62673 7.24762L7.15717 7.62257C6.91849 7.81395 6.94979 8.16938 6.94979 8.16938C6.94979 8.16938 7.64629 10.798 10.2484 11.4619C10.2484 11.4619 10.6045 11.4932 10.7962 11.2549L11.1719 10.7862C11.3518 10.5519 11.7862 10.4035 12.2127 10.6417C12.7879 10.9659 13.5196 11.4697 14.0048 11.9267C14.2787 12.1493 14.3413 12.4891 14.1535 12.8485Z" fill="white"/>
</svg>
