<svg width="26" height="18" viewBox="0 0 26 18" fill="none" xmlns="http://www.w3.org/2000/svg">
<path d="M24.5006 3.51196C24.3647 3.02719 24.1 2.5883 23.7346 2.24196C23.3589 1.88496 22.8984 1.62959 22.3966 1.49996C20.5186 1.00496 12.9946 1.00496 12.9946 1.00496C9.85795 0.969272 6.72205 1.12623 3.60462 1.47496C3.10281 1.61417 2.64318 1.87525 2.26662 2.23496C1.89662 2.59096 1.62862 3.02996 1.48862 3.51096C1.15231 5.3227 0.988909 7.1623 1.00062 9.00496C0.988617 10.846 1.15162 12.685 1.48862 14.499C1.62562 14.978 1.89262 15.415 2.26362 15.768C2.63462 16.121 3.09662 16.376 3.60462 16.511C5.50762 17.005 12.9946 17.005 12.9946 17.005C16.1353 17.0407 19.2752 16.8837 22.3966 16.535C22.8984 16.4053 23.3589 16.15 23.7346 15.793C24.0999 15.4467 24.3643 15.0077 24.4996 14.523C24.8447 12.7119 25.0125 10.8716 25.0006 9.02796C25.0266 7.17656 24.859 5.32752 24.5006 3.51096V3.51196ZM10.6026 12.429V5.58196L16.8626 9.00596L10.6026 12.429Z" stroke="white"/>
</svg>
