<?xml version="1.0" standalone="no"?>
<!DOCTYPE svg PUBLIC "-//W3C//DTD SVG 20010904//EN"
 "http://www.w3.org/TR/2001/REC-SVG-20010904/DTD/svg10.dtd">
<svg version="1.0" xmlns="http://www.w3.org/2000/svg"
 width="500.000000pt" height="500.000000pt" viewBox="0 0 500.000000 500.000000"
 preserveAspectRatio="xMidYMid meet">
<metadata>
Created by potrace 1.14, written by Peter Selinger 2001-2017
</metadata>
<g transform="translate(0.000000,500.000000) scale(0.100000,-0.100000)"
fill="#000000" stroke="none">
<path d="M0 2500 l0 -2500 2500 0 2500 0 0 2500 0 2500 -2500 0 -2500 0 0
-2500z m4685 1713 c-17 -71 -69 -186 -116 -256 -113 -173 -258 -293 -458 -379
l-76 -33 -590 -5 c-324 -3 -596 -9 -602 -13 -10 -6 -13 -294 -13 -1383 l0
-1374 -340 0 -340 0 0 1374 c0 1089 -3 1377 -12 1383 -7 4 -276 10 -598 13
l-585 5 -80 32 c-263 106 -482 353 -570 641 l-6 22 2196 0 2197 0 -7 -27z"/>
</g>
</svg>
